<svg width="81" height="80" viewBox="0 0 81 80" fill="none" xmlns="http://www.w3.org/2000/svg">
<path fill-rule="evenodd" clip-rule="evenodd" d="M80.32 27.2V14.4C80.32 13.44 79.36 12.8 78.4 12.8C77.44 12.8 76.8 13.44 76.8 14.4V24.32C70.72 9.6 56.32 0 40 0C17.92 0 0 17.92 0 40C0 62.08 17.92 80 40 80C51.52 80 62.4 75.2 70.08 66.56C70.72 65.92 70.72 64.96 70.08 64.32C69.44 63.68 68.48 63.68 67.84 64.32C60.8 72.32 50.88 76.8 40.32 76.8C20.16 76.8 3.52 60.16 3.52 40C3.52 19.84 20.16 3.2 40.32 3.2C55.36 3.2 68.48 12.16 74.24 25.6H65.92C64.96 25.6 64.32 26.24 64.32 27.2C64.32 28.16 64.96 28.8 65.92 28.8H78.72C79.68 28.8 80.32 28.16 80.32 27.2ZM38.4 20.7999C38.4 19.8399 39.04 19.1999 40 19.1999C40.96 19.1999 41.92 19.8399 41.28 20.4799V39.0399L53.76 51.5199C54.4 52.1599 54.4 53.1199 53.76 53.7599C53.12 54.3999 52.16 54.3999 51.52 53.7599L38.72 40.9599C38.4 40.6399 38.4 40.3199 38.4 39.9999V20.7999Z" fill="#C81F40"/>
</svg>
